<svg width="68" height="68" viewBox="0 0 68 68" fill="none" xmlns="http://www.w3.org/2000/svg">
<path d="M25.5 1.18031C25.9149 1.68441 26.169 2.30134 26.2296 2.95138C26.2902 3.60142 26.1545 4.2547 25.84 4.82681C23.3829 9.33808 22.0997 14.3948 22.1085 19.5318C22.1085 36.6211 36.04 50.4591 53.21 50.4591C55.4498 50.4591 57.63 50.2253 59.7253 49.7791C60.3675 49.64 61.0366 49.6932 61.6488 49.932C62.261 50.1709 62.7893 50.5848 63.1678 51.1221C63.5672 51.6807 63.7709 52.3557 63.747 53.0421C63.7232 53.7284 63.4732 54.3877 63.036 54.9173C59.7027 59.0119 55.4976 62.311 50.7273 64.5741C45.957 66.8372 40.7419 68.0072 35.462 67.9988C15.8695 67.9988 0 52.2143 0 32.7663C0 18.1293 8.9845 5.57481 21.777 0.253812C22.4142 -0.0155027 23.1217 -0.0707783 23.793 0.0962885C24.4643 0.263355 25.0633 0.643744 25.5 1.18031ZM20.6465 5.57056C15.7276 8.20909 11.6154 12.131 8.74706 16.9196C5.87871 21.7082 4.36135 27.1844 4.35625 32.7663C4.35625 49.8513 18.292 63.6893 35.462 63.6893C39.5736 63.6964 43.6459 62.888 47.443 61.3108C51.2401 59.7336 54.6867 57.4189 57.5832 54.5008C56.151 54.6793 54.6933 54.7686 53.21 54.7686C33.6175 54.7686 17.7523 38.9841 17.7523 19.5361C17.7523 14.5763 18.7807 9.85456 20.6465 5.57056Z" fill="#518F9C"/>
<path d="M45.8745 13.379C45.9354 13.1949 46.0528 13.0348 46.21 12.9213C46.3672 12.8077 46.5561 12.7466 46.75 12.7466C46.9439 12.7466 47.1328 12.8077 47.29 12.9213C47.4472 13.0348 47.5645 13.1949 47.6255 13.379L49.2702 18.3175C50.0055 20.519 51.731 22.2445 53.9325 22.9797L58.871 24.6245C59.055 24.6854 59.2152 24.8028 59.3287 24.96C59.4422 25.1172 59.5033 25.3061 59.5033 25.5C59.5033 25.6939 59.4422 25.8828 59.3287 26.04C59.2152 26.1972 59.055 26.3146 58.871 26.3755L53.9325 28.0202C52.8467 28.382 51.8601 28.9916 51.0509 29.8009C50.2416 30.6101 49.632 31.5967 49.2702 32.6825L47.6255 37.621C47.5645 37.805 47.4472 37.9652 47.29 38.0787C47.1328 38.1922 46.9439 38.2533 46.75 38.2533C46.5561 38.2533 46.3672 38.1922 46.21 38.0787C46.0528 37.9652 45.9354 37.805 45.8745 37.621L44.2297 32.6825C43.868 31.5967 43.2583 30.6101 42.4491 29.8009C41.6399 28.9916 40.6533 28.382 39.5675 28.0202L34.629 26.3755C34.4449 26.3146 34.2848 26.1972 34.1713 26.04C34.0577 25.8828 33.9966 25.6939 33.9966 25.5C33.9966 25.3061 34.0577 25.1172 34.1713 24.96C34.2848 24.8028 34.4449 24.6854 34.629 24.6245L39.5675 22.9797C40.6533 22.618 41.6399 22.0083 42.4491 21.1991C43.2583 20.3899 43.868 19.4033 44.2297 18.3175L45.8745 13.379ZM58.9177 0.420742C58.9597 0.299728 59.0383 0.194794 59.1427 0.120528C59.247 0.0462624 59.3719 0.00635529 59.5 0.00635529C59.6281 0.00635529 59.753 0.0462624 59.8573 0.120528C59.9617 0.194794 60.0403 0.299728 60.0822 0.420742L61.1787 3.71024C61.6675 5.18074 62.8192 6.33249 64.2897 6.82124L67.5792 7.91774C67.7003 7.9597 67.8052 8.03831 67.8795 8.14266C67.9537 8.24701 67.9936 8.37191 67.9936 8.49999C67.9936 8.62807 67.9537 8.75297 67.8795 8.85732C67.8052 8.96167 67.7003 9.04029 67.5792 9.08224L64.2897 10.1787C63.5651 10.4198 62.9066 10.8265 62.3665 11.3665C61.8265 11.9066 61.4198 12.5651 61.1787 13.2897L60.0822 16.5792C60.0403 16.7003 59.9617 16.8052 59.8573 16.8795C59.753 16.9537 59.6281 16.9936 59.5 16.9936C59.3719 16.9936 59.247 16.9537 59.1427 16.8795C59.0383 16.8052 58.9597 16.7003 58.9177 16.5792L57.8212 13.2897C57.5802 12.5651 57.1735 11.9066 56.6334 11.3665C56.0934 10.8265 55.4349 10.4198 54.7102 10.1787L51.4207 9.08224C51.2997 9.04029 51.1948 8.96167 51.1205 8.85732C51.0463 8.75297 51.0064 8.62807 51.0064 8.49999C51.0064 8.37191 51.0463 8.24701 51.1205 8.14266C51.1948 8.03831 51.2997 7.9597 51.4207 7.91774L54.7102 6.82124C56.1807 6.33249 57.3325 5.18074 57.8212 3.71024L58.9177 0.424992V0.420742Z" fill="#518F9C"/>
</svg>
