<svg width="28" height="27" viewBox="0 0 28 27" fill="none" xmlns="http://www.w3.org/2000/svg">
<path d="M13.8407 12.2756C13.1508 17.8308 9.62734 18.819 9.62734 22.6814C9.62734 25.0655 11.6294 27 14 27C16.3706 27 18.3713 25.0641 18.3713 22.6814C18.3713 18.819 14.8478 17.8308 14.1579 12.2756C14.1363 12.1095 13.8623 12.1095 13.8407 12.2756ZM5.74204 0.125552C5.05219 5.6808 1.52869 6.66765 1.52869 10.5314C1.52869 12.9141 3.52939 14.85 5.89999 14.85C8.27059 14.85 10.2713 12.9141 10.2713 10.5314C10.2713 6.669 6.74779 5.6808 6.05794 0.125552C6.03769 -0.0404978 5.76229 -0.0404978 5.74204 0.125552ZM21.942 0.125552C21.2522 5.6808 17.7287 6.669 17.7287 10.5314C17.7287 12.9141 19.7294 14.85 22.1 14.85C24.4706 14.85 26.4713 12.9141 26.4713 10.5314C26.4713 6.669 22.9478 5.6808 22.2579 0.125552C22.2363 -0.0404978 21.9623 -0.0404978 21.942 0.125552Z" fill="#4F99A9"/>
</svg>
