<svg width="98" height="25" viewBox="0 0 98 25" fill="none" xmlns="http://www.w3.org/2000/svg">
<path d="M0.24 7.8H1.936L2.72 16.408H2.752L3.584 7.8H5.504L6.336 16.408H6.368L7.152 7.8H8.672L7.536 19H5.344L4.544 11.448H4.512L3.712 19H1.376L0.24 7.8ZM9.56225 7.8H14.3623V9.4H11.3223V12.36H13.7383V13.96H11.3223V17.4H14.3623V19H9.56225V7.8ZM16.7348 7.8H19.1188L20.9428 19H19.1828L18.8628 16.776V16.808H16.8628L16.5428 19H14.9108L16.7348 7.8ZM18.6548 15.288L17.8708 9.752H17.8388L17.0707 15.288H18.6548ZM22.4383 9.4H20.5983V7.8H26.0383V9.4H24.1983V19H22.4383V9.4ZM26.8904 7.8H28.6504V12.36H30.5384V7.8H32.2984V19H30.5384V13.96H28.6504V19H26.8904V7.8ZM33.6091 7.8H38.4091V9.4H35.3691V12.36H37.7851V13.96H35.3691V17.4H38.4091V19H33.6091V7.8ZM39.4216 7.8H42.0296C42.9363 7.8 43.5976 8.01333 44.0136 8.44C44.4296 8.856 44.6376 9.50133 44.6376 10.376V11.064C44.6376 12.2267 44.2536 12.9627 43.4856 13.272V13.304C43.9123 13.432 44.211 13.6933 44.3816 14.088C44.563 14.4827 44.6536 15.0107 44.6536 15.672V17.64C44.6536 17.96 44.6643 18.2213 44.6856 18.424C44.707 18.616 44.7603 18.808 44.8456 19H43.0536C42.9896 18.8187 42.947 18.648 42.9256 18.488C42.9043 18.328 42.8936 18.04 42.8936 17.624V15.576C42.8936 15.064 42.8083 14.7067 42.6376 14.504C42.4776 14.3013 42.195 14.2 41.7896 14.2H41.1816V19H39.4216V7.8ZM41.8216 12.6C42.1736 12.6 42.435 12.5093 42.6056 12.328C42.787 12.1467 42.8776 11.8427 42.8776 11.416V10.552C42.8776 10.1467 42.803 9.85333 42.6536 9.672C42.515 9.49067 42.291 9.4 41.9816 9.4H41.1816V12.6H41.8216ZM49.7973 7.8H52.1813L54.0053 19H52.2453L51.9253 16.776V16.808H49.9253L49.6053 19H47.9733L49.7973 7.8ZM51.7173 15.288L50.9333 9.752H50.9013L50.1332 15.288H51.7173ZM54.8591 7.8H57.4511C58.3258 7.8 58.9818 8.03467 59.4191 8.504C59.8565 8.97333 60.0751 9.66133 60.0751 10.568V11.672C60.0751 12.5787 59.8565 13.2667 59.4191 13.736C58.9818 14.2053 58.3258 14.44 57.4511 14.44H56.6191V19H54.8591V7.8ZM57.4511 12.84C57.7391 12.84 57.9525 12.76 58.0911 12.6C58.2405 12.44 58.3151 12.168 58.3151 11.784V10.456C58.3151 10.072 58.2405 9.8 58.0911 9.64C57.9525 9.48 57.7391 9.4 57.4511 9.4H56.6191V12.84H57.4511ZM61.031 7.8H63.623C64.4977 7.8 65.1537 8.03467 65.591 8.504C66.0283 8.97333 66.247 9.66133 66.247 10.568V11.672C66.247 12.5787 66.0283 13.2667 65.591 13.736C65.1537 14.2053 64.4977 14.44 63.623 14.44H62.791V19H61.031V7.8ZM63.623 12.84C63.911 12.84 64.1243 12.76 64.263 12.6C64.4123 12.44 64.487 12.168 64.487 11.784V10.456C64.487 10.072 64.4123 9.8 64.263 9.64C64.1243 9.48 63.911 9.4 63.623 9.4H62.791V12.84H63.623Z" fill="black"/>
<ellipse cx="79.1667" cy="14.8305" rx="10.6667" ry="10.1695" fill="#CEAA4E"/>
<g style="mix-blend-mode:exclusion">
<ellipse cx="84.4091" cy="14.7436" rx="10.1818" ry="10.2564" fill="#C8C8C8"/>
</g>
</svg>
