<svg width="17" height="18" viewBox="0 0 17 18" fill="none" xmlns="http://www.w3.org/2000/svg">
<path d="M16.9489 16.2781L11.4303 10.7595C12.2867 9.65233 12.7499 8.29872 12.7499 6.87497C12.7499 5.17073 12.0848 3.57274 10.8821 2.36787C9.67933 1.163 8.07709 0.5 6.37497 0.5C4.67285 0.5 3.07061 1.16512 1.86787 2.36787C0.662997 3.57061 0 5.17073 0 6.87497C0 8.57709 0.665122 10.1793 1.86787 11.3821C3.07061 12.5869 4.67073 13.2499 6.37497 13.2499C7.79872 13.2499 9.15021 12.7867 10.2573 11.9325L15.7759 17.4489C15.7921 17.4651 15.8113 17.478 15.8325 17.4867C15.8536 17.4955 15.8763 17.5 15.8992 17.5C15.9221 17.5 15.9447 17.4955 15.9659 17.4867C15.987 17.478 16.0062 17.4651 16.0224 17.4489L16.9489 16.5246C16.9651 16.5084 16.978 16.4892 16.9867 16.468C16.9955 16.4469 17 16.4242 17 16.4013C17 16.3784 16.9955 16.3557 16.9867 16.3346C16.978 16.3135 16.9651 16.2942 16.9489 16.2781ZM9.74096 10.241C8.83996 11.1398 7.64572 11.635 6.37497 11.635C5.10423 11.635 3.90998 11.1398 3.00899 10.241C2.11012 9.33996 1.61499 8.14572 1.61499 6.87497C1.61499 5.60423 2.11012 4.40786 3.00899 3.50899C3.90998 2.61012 5.10423 2.11499 6.37497 2.11499C7.64572 2.11499 8.84209 2.60799 9.74096 3.50899C10.6398 4.40998 11.135 5.60423 11.135 6.87497C11.135 8.14572 10.6398 9.34209 9.74096 10.241Z" fill="#979797"/>
</svg>
