<svg width="83" height="83" viewBox="0 0 83 83" fill="none" xmlns="http://www.w3.org/2000/svg">
<path d="M41.5 57.0625C37.3726 57.0625 33.4142 55.4229 30.4957 52.5044C27.5771 49.5858 25.9375 45.6274 25.9375 41.5C25.9375 37.3726 27.5771 33.4142 30.4957 30.4957C33.4142 27.5771 37.3726 25.9375 41.5 25.9375C45.6274 25.9375 49.5858 27.5771 52.5044 30.4957C55.4229 33.4142 57.0625 37.3726 57.0625 41.5C57.0625 45.6274 55.4229 49.5858 52.5044 52.5044C49.5858 55.4229 45.6274 57.0625 41.5 57.0625ZM41.5 62.25C47.0032 62.25 52.2811 60.0638 56.1725 56.1725C60.0638 52.2811 62.25 47.0032 62.25 41.5C62.25 35.9968 60.0638 30.7189 56.1725 26.8275C52.2811 22.9362 47.0032 20.75 41.5 20.75C35.9968 20.75 30.7189 22.9362 26.8275 26.8275C22.9362 30.7189 20.75 35.9968 20.75 41.5C20.75 47.0032 22.9362 52.2811 26.8275 56.1725C30.7189 60.0638 35.9968 62.25 41.5 62.25ZM41.5 0C42.1879 0 42.8476 0.273269 43.3341 0.759692C43.8205 1.24611 44.0938 1.90584 44.0938 2.59375V12.9688C44.0938 13.6567 43.8205 14.3164 43.3341 14.8028C42.8476 15.2892 42.1879 15.5625 41.5 15.5625C40.8121 15.5625 40.1524 15.2892 39.6659 14.8028C39.1795 14.3164 38.9062 13.6567 38.9062 12.9688V2.59375C38.9062 1.90584 39.1795 1.24611 39.6659 0.759692C40.1524 0.273269 40.8121 0 41.5 0V0ZM41.5 67.4375C42.1879 67.4375 42.8476 67.7108 43.3341 68.1972C43.8205 68.6836 44.0938 69.3433 44.0938 70.0312V80.4062C44.0938 81.0942 43.8205 81.7539 43.3341 82.2403C42.8476 82.7267 42.1879 83 41.5 83C40.8121 83 40.1524 82.7267 39.6659 82.2403C39.1795 81.7539 38.9062 81.0942 38.9062 80.4062V70.0312C38.9062 69.3433 39.1795 68.6836 39.6659 68.1972C40.1524 67.7108 40.8121 67.4375 41.5 67.4375ZM83 41.5C83 42.1879 82.7267 42.8476 82.2403 43.3341C81.7539 43.8205 81.0942 44.0938 80.4062 44.0938H70.0312C69.3433 44.0938 68.6836 43.8205 68.1972 43.3341C67.7108 42.8476 67.4375 42.1879 67.4375 41.5C67.4375 40.8121 67.7108 40.1524 68.1972 39.6659C68.6836 39.1795 69.3433 38.9062 70.0312 38.9062H80.4062C81.0942 38.9062 81.7539 39.1795 82.2403 39.6659C82.7267 40.1524 83 40.8121 83 41.5ZM15.5625 41.5C15.5625 42.1879 15.2892 42.8476 14.8028 43.3341C14.3164 43.8205 13.6567 44.0938 12.9688 44.0938H2.59375C1.90584 44.0938 1.24611 43.8205 0.759692 43.3341C0.273269 42.8476 0 42.1879 0 41.5C0 40.8121 0.273269 40.1524 0.759692 39.6659C1.24611 39.1795 1.90584 38.9062 2.59375 38.9062H12.9688C13.6567 38.9062 14.3164 39.1795 14.8028 39.6659C15.2892 40.1524 15.5625 40.8121 15.5625 41.5ZM70.8457 12.1543C71.3319 12.6407 71.6051 13.3003 71.6051 13.9881C71.6051 14.6759 71.3319 15.3355 70.8457 15.8219L63.5106 23.1622C63.2694 23.403 62.9832 23.594 62.6682 23.7242C62.3533 23.8544 62.0158 23.9212 61.6749 23.921C60.9867 23.9205 60.3268 23.6466 59.8404 23.1596C59.5996 22.9184 59.4086 22.6322 59.2784 22.3173C59.1482 22.0023 59.0813 21.6648 59.0816 21.324C59.0821 20.6357 59.356 19.9758 59.843 19.4894L67.1781 12.1543C67.6645 11.6681 68.3241 11.3949 69.0119 11.3949C69.6997 11.3949 70.3593 11.6681 70.8457 12.1543ZM23.157 59.843C23.6433 60.3294 23.9164 60.989 23.9164 61.6768C23.9164 62.3645 23.6433 63.0242 23.157 63.5106L15.8219 70.8457C15.3327 71.3182 14.6775 71.5796 13.9974 71.5737C13.3174 71.5678 12.6668 71.295 12.1859 70.8141C11.705 70.3332 11.4322 69.6826 11.4263 69.0026C11.4204 68.3225 11.6818 67.6673 12.1543 67.1781L19.4894 59.843C19.9758 59.3567 20.6354 59.0836 21.3232 59.0836C22.011 59.0836 22.6706 59.3567 23.157 59.843ZM70.8457 70.8457C70.3593 71.3319 69.6997 71.6051 69.0119 71.6051C68.3241 71.6051 67.6645 71.3319 67.1781 70.8457L59.843 63.5106C59.3705 63.0214 59.1091 62.3662 59.115 61.6861C59.1209 61.006 59.3937 60.3555 59.8746 59.8746C60.3555 59.3937 61.006 59.1209 61.6861 59.115C62.3662 59.1091 63.0214 59.3705 63.5106 59.843L70.8457 67.1781C71.3319 67.6645 71.6051 68.3241 71.6051 69.0119C71.6051 69.6997 71.3319 70.3593 70.8457 70.8457ZM23.157 23.1622C22.6706 23.6484 22.011 23.9216 21.3232 23.9216C20.6354 23.9216 19.9758 23.6484 19.4894 23.1622L12.1543 15.8219C11.9066 15.5826 11.709 15.2964 11.573 14.98C11.4371 14.6635 11.3656 14.3232 11.3626 13.9788C11.3596 13.6344 11.4252 13.2928 11.5556 12.9741C11.686 12.6553 11.8786 12.3657 12.1222 12.1222C12.3657 11.8786 12.6553 11.686 12.9741 11.5556C13.2928 11.4252 13.6344 11.3596 13.9788 11.3626C14.3232 11.3656 14.6635 11.4371 14.98 11.573C15.2964 11.709 15.5826 11.9066 15.8219 12.1543L23.157 19.4894C23.3985 19.7304 23.5902 20.0166 23.7209 20.3317C23.8517 20.6468 23.919 20.9846 23.919 21.3258C23.919 21.667 23.8517 22.0048 23.7209 22.3199C23.5902 22.635 23.3985 22.9213 23.157 23.1622Z" fill="#D7C35C"/>
</svg>
