<svg width="25" height="25" viewBox="0 0 25 25" fill="none" xmlns="http://www.w3.org/2000/svg">
<path d="M7.65104 12.4994H0.781216C0.351547 12.4994 0 12.8343 0 13.2435V14.7318C0 15.1411 0.351547 15.4759 0.781216 15.4759H7.72428C8.50061 15.4759 9.22812 15.9829 9.35506 16.7131C9.51619 17.6432 8.76427 18.4525 7.81216 18.4525C7.12372 18.4525 6.5378 18.0246 6.32785 17.4339C6.22532 17.1409 5.90795 16.9642 5.5857 16.9642H3.9842C3.50571 16.9642 3.11998 17.3735 3.20787 17.82C3.62777 19.871 5.53199 21.429 7.80728 21.429C10.5952 21.429 12.8217 19.0989 12.4555 16.3782C12.1577 14.1272 10.0289 12.4994 7.65104 12.4994ZM0.781216 11.0112H17.1868C20.1017 11.0112 22.4014 8.4625 21.7666 5.58364C21.3956 3.90004 19.965 2.53735 18.1975 2.18388C15.4925 1.64439 13.0658 3.34194 12.5873 5.69526C12.4946 6.14174 12.8852 6.54636 13.3588 6.54636H14.9603C15.2874 6.54636 15.5999 6.36963 15.7024 6.07662C15.9124 5.48597 16.4983 5.05809 17.1868 5.05809C18.134 5.05809 18.8908 5.86734 18.7297 6.7975C18.6027 7.52768 17.8801 8.03462 17.0989 8.03462H0.781216C0.351547 8.03462 0 8.36948 0 8.77876V10.267C0 10.6763 0.351547 11.0112 0.781216 11.0112ZM19.5304 12.4994H11.8989C12.8412 13.2715 13.5199 14.3039 13.8422 15.4759H19.5304C20.8243 15.4759 21.8741 16.4759 21.8741 17.7083C21.8741 18.9408 20.8243 19.9407 19.5304 19.9407C18.6564 19.9407 17.9045 19.4803 17.4992 18.8059C17.3576 18.5734 17.0745 18.4525 16.7913 18.4525H15.1409C14.6087 18.4525 14.2133 18.9548 14.3939 19.4338C15.263 21.7871 17.8361 23.3777 20.712 22.7963C22.7236 22.3917 24.3788 20.8616 24.8476 18.9501C25.6825 15.5457 22.9726 12.4994 19.5304 12.4994Z" fill="#6E9376"/>
</svg>
